<svg xmlns="http://www.w3.org/2000/svg" viewBox="0 0 1080 878" preserveAspectRatio="xMidYMid slice">
  <defs>
    <radialGradient id="bg" cx="35%" cy="20%" r="100%"><stop offset="0%" stop-color="#EFEAE0"/><stop offset="100%" stop-color="#6A5A3A"/></radialGradient>
    <linearGradient id="slip" x1="0%" y1="0%" x2="0%" y2="100%"><stop offset="0%" stop-color="#C9B080"/><stop offset="100%" stop-color="#7A6438"/></linearGradient>
    <filter id="g"><feTurbulence type="fractalNoise" baseFrequency="0.85" numOctaves="2" seed="23"/><feColorMatrix values="0 0 0 0 0  0 0 0 0 0  0 0 0 0 0  0 0 0 0.11 0"/></filter>
  </defs>
  <rect width="1080" height="878" fill="url(#bg)"/>
  <ellipse cx="380" cy="800" rx="280" ry="22" fill="#0A0908" opacity="0.35"/>
  <g fill="url(#slip)">
    <rect x="180" y="240" width="34" height="540" rx="3"/>
    <rect x="230" y="240" width="34" height="540" rx="3"/>
    <rect x="280" y="240" width="34" height="540" rx="3"/>
    <rect x="330" y="240" width="34" height="540" rx="3"/>
    <rect x="380" y="240" width="34" height="540" rx="3"/>
    <rect x="430" y="240" width="34" height="540" rx="3"/>
    <rect x="480" y="240" width="34" height="540" rx="3"/>
  </g>
  <rect x="170" y="380" width="360" height="4" fill="#3A2A18" opacity="0.5"/>
  <rect x="170" y="640" width="360" height="4" fill="#3A2A18" opacity="0.5"/>
  <g fill="#1A1408" opacity="0.7">
    <rect x="188" y="420" width="18" height="40"/><rect x="188" y="480" width="18" height="20"/>
    <rect x="238" y="420" width="18" height="40"/><rect x="238" y="500" width="18" height="30"/>
    <rect x="288" y="420" width="18" height="40"/><rect x="288" y="490" width="18" height="35"/>
    <rect x="338" y="450" width="18" height="40"/><rect x="338" y="510" width="18" height="20"/>
  </g>
  <rect width="1080" height="878" filter="url(#g)" opacity="0.55"/>
</svg>
