<svg xmlns="http://www.w3.org/2000/svg" viewBox="0 0 1080 878" preserveAspectRatio="xMidYMid slice">
  <defs>
    <radialGradient id="bg" cx="65%" cy="25%" r="100%"><stop offset="0%" stop-color="#EFEAE0"/><stop offset="100%" stop-color="#5A5040"/></radialGradient>
    <linearGradient id="leaf" x1="0%" y1="0%" x2="100%" y2="100%"><stop offset="0%" stop-color="#4A5828"/><stop offset="100%" stop-color="#1A2010"/></linearGradient>
    <filter id="g"><feTurbulence type="fractalNoise" baseFrequency="0.9" numOctaves="2" seed="19"/><feColorMatrix values="0 0 0 0 0  0 0 0 0 0  0 0 0 0 0  0 0 0 0.11 0"/></filter>
  </defs>
  <rect width="1080" height="878" fill="url(#bg)"/>
  <g fill="url(#leaf)">
    <ellipse cx="340" cy="500" rx="65" ry="14" transform="rotate(-25 340 500)"/>
    <ellipse cx="420" cy="540" rx="70" ry="15" transform="rotate(15 420 540)"/>
    <ellipse cx="380" cy="600" rx="60" ry="13" transform="rotate(-40 380 600)"/>
    <ellipse cx="470" cy="480" rx="68" ry="14" transform="rotate(35 470 480)"/>
    <ellipse cx="290" cy="560" rx="58" ry="12" transform="rotate(10 290 560)"/>
    <ellipse cx="490" cy="620" rx="62" ry="13" transform="rotate(-15 490 620)"/>
    <ellipse cx="370" cy="430" rx="55" ry="12" transform="rotate(60 370 430)"/>
  </g>
  <g stroke="#2A3010" stroke-width="0.8" fill="none" opacity="0.6">
    <line x1="280" y1="528" x2="400" y2="478"/><line x1="355" y1="557" x2="485" y2="521"/>
    <line x1="345" y1="640" x2="415" y2="563"/><line x1="411" y1="448" x2="528" y2="513"/>
  </g>
  <rect width="1080" height="878" filter="url(#g)" opacity="0.55"/>
</svg>
